<svg xmlns="http://www.w3.org/2000/svg" fill="none" viewBox="0 0 40 40" id="Abstract-Character-15--Streamline-Abstract.svg" height="40" width="40"><desc>Abstract Character 15 Streamline Emoji: https://streamlinehq.com</desc><g clip-path="url(#a)"><path fill="#05efef" d="M15.351304347826087 4.4057950310559 19.98975155279503 0l4.638447204968944 4.4057950310559 3.132919254658385 -2.6434782608695655 2.0363975155279506 5.161099378881987 5.795900621118012 -0.8811801242236025 -1.488136645962733 6.419875776397515 5.874223602484472 2.517577639751553 -3.916149068322981 6.419875776397515 2.506335403726708 3.9022981366459626L34.10527950310559 28.322981366459626l-14.115527950310558 -0.2665217391304348L5.874217391304348 28.322981366459626 1.4098136645962733 25.301863354037266l2.506329192546584 -3.9022981366459626L0 14.97968944099379l5.874217391304348 -2.517577639751553 -1.488136645962733 -6.419875776397515 5.795906832298137 0.8811801242236025 2.0363975155279506 -5.161099378881987 3.132919254658385 2.6434782608695655Z" stroke-width="1"></path><path stroke="#000000" stroke-linecap="round" stroke-linejoin="round" stroke-width="1" d="M13.29192546583851 15.900621118012422c1.029192546583851 0.9936645962732918 2.697701863354037 0.9937888198757764 3.7267080745341614 0.0002484472049689441L13.29192546583851 15.900621118012422Z"></path><path stroke="#000000" stroke-linecap="round" stroke-width="1" d="M13.664596273291925 11.677018633540373c-0.6175155279503106 0.6624844720496894 -1.6186335403726706 0.6625465838509317 -2.2360248447204967 0.00018633540372670808"></path><path stroke="#000000" stroke-linecap="round" stroke-width="1" d="M18.88198757763975 11.677018633540373c-0.6175155279503106 0.6624844720496894 -1.6186335403726706 0.6625465838509317 -2.2360248447204967 0.00018633540372670808"></path><path fill="#05efef" fill-rule="evenodd" d="m15.527950310559007 40.683229813664596 0 -16.335403726708073h2.484472049689441v14.472049689440993l0 3.7267080745341614h-4.968944099378882l2.484472049689441 -1.8633540372670807Z" clip-rule="evenodd" stroke-width="1"></path><path fill="#05efef" fill-rule="evenodd" d="m22.17391304347826 40.683229813664596 0 -16.335403726708073h2.484472049689441v14.472049689440993l0 3.7267080745341614h-4.968944099378882l2.484472049689441 -1.8633540372670807Z" clip-rule="evenodd" stroke-width="1"></path><path stroke="#05efef" stroke-width="1" d="M9.627329192546584 26.73913043478261V38.19875776397515"></path><path stroke="#05efef" stroke-width="1" d="M30.372670807453417 26.73913043478261V38.19875776397515"></path></g><defs><clipPath id="a"><path fill="#ffffff" d="M0 0h39.97950310559006v42.546583850931675H0z" stroke-width="1"></path></clipPath></defs></svg>