<svg xmlns="http://www.w3.org/2000/svg" fill="none" viewBox="0 0 40 40" id="Abstract-Character-2--Streamline-Abstract.svg" height="40" width="40"><desc>Abstract Character 2 Streamline Emoji: https://streamlinehq.com</desc><g clip-path="url(#a)"><path fill="#47b86d" d="M32.51778093883357 13.143669985775249c0 -6.913399715504979 -5.604381223328592 -12.517780938833571 -12.517780938833571 -12.517780938833571s-12.517780938833571 5.604381223328592 -12.517780938833571 12.517780938833571v20.825035561877666h25.035561877667142V13.143669985775249Z" stroke-width="1"></path><path fill="#000000" d="M17.95163584637269 9.046941678520627a0.6827880512091038 0.6827880512091038 0 1 1 -1.3655761024182076 0 0.6827880512091038 0.6827880512091038 0 1 1 1.3655761024182076 0" stroke-width="1"></path><path fill="#000000" d="M23.41394025604552 9.046941678520627a0.6827880512091038 0.6827880512091038 0 1 1 -1.3655761024182076 0 0.6827880512091038 0.6827880512091038 0 1 1 1.3655761024182076 0" stroke-width="1"></path><path stroke="#000000" stroke-linecap="round" stroke-width="1" d="M19.601706970128024 11.493598862019915c-0.5656330014224752 0 -1.0241820768136558 0.407624466571835 -1.0241820768136558 0.91049786628734 0 0.4955903271692746 0.4454054054054054 0.8987197724039829 0.9997724039829304 0.9102702702702703"></path><path stroke="#000000" stroke-linecap="round" stroke-width="1" d="M19.601706970128024 13.314366998577524c-0.5656330014224752 0 -1.0241820768136558 0.407624466571835 -1.0241820768136558 0.91049786628734 0 0.4955903271692746 0.4454054054054054 0.8987197724039829 0.9997724039829304 0.9102702702702703"></path><path fill="#47b86d" fill-rule="evenodd" d="M37.72403982930299 37.01280227596017c0 -2.938207681365576 -2.3818492176386914 -5.320056899004268 -5.320056899004268 -5.320056899004268v2.275960170697013c1.681194879089616 0 3.0440967283072546 1.3629018492176386 3.0440967283072546 3.0440967283072546V39.60170697012802h4.551920341394026l-2.275960170697013 -1.7069701280227596v-0.8819345661450925Z" clip-rule="evenodd" stroke-width="1"></path><path stroke="#47b86d" stroke-width="1" d="M36.58605974395448 11.948790896159318v2.588904694167852c0 2.3097012802275962 -1.8723755334281649 4.182076813655761 -4.182076813655761 4.182076813655761"></path><path fill="#47b86d" fill-rule="evenodd" d="M2.275960170697013 37.01280227596017c0 -2.938207681365576 2.3818719772403987 -5.320056899004268 5.320056899004268 -5.320056899004268v2.275960170697013c-1.681194879089616 0 -3.0440967283072546 1.3629018492176386 -3.0440967283072546 3.0440967283072546V39.60170697012802H0l2.275960170697013 -1.7069701280227596v-0.8819345661450925Z" clip-rule="evenodd" stroke-width="1"></path><path stroke="#47b86d" stroke-width="1" d="M3.413940256045519 11.948790896159318v2.588904694167852c0 2.3097012802275962 1.8723812233285917 4.182076813655761 4.182076813655761 4.182076813655761"></path></g><defs><clipPath id="a"><path fill="#ffffff" d="M0 0h40v38.97581792318635H0z" stroke-width="1"></path></clipPath></defs></svg>