<svg xmlns="http://www.w3.org/2000/svg" fill="none" viewBox="0 0 40 40" id="Abstract-Character-23--Streamline-Abstract.svg" height="40" width="40"><desc>Abstract Character 23 Streamline Emoji: https://streamlinehq.com</desc><g clip-path="url(#a)"><path fill="#f4583e" d="M5.606060606060606 0.00001105393939393939V15.741742424242425c0 7.949545454545454 6.444393939393939 14.393939393939394 14.393939393939394 14.393939393939394s14.393939393939394 -6.444393939393939 14.393939393939394 -14.393939393939394V0c-2.828787878787879 5.0269469696969695 -8.214848484848485 8.422500000000001 -14.393939393939394 8.422500000000001S8.434924242424243 5.0269545454545455 5.606060606060606 0.00001105393939393939Z" stroke-width="1"></path><path stroke="#000000" stroke-linecap="round" stroke-linejoin="round" stroke-width="1" d="M17.727272727272727 20.90939393939394c1.2553030303030304 1.211969696969697 3.290378787878788 1.2121212121212122 4.545454545454546 0.00030303030303030303l-4.545454545454546 -0.00030303030303030303Z"></path><path stroke="#000000" stroke-linecap="round" stroke-width="1" d="m18.181818181818183 16.060909090909092 -2.7272727272727275 -0.6062878787878788"></path><path stroke="#000000" stroke-linecap="round" stroke-width="1" d="M24.545454545454547 15.454772727272726 21.81818181818182 16.060606060606062"></path><path fill="#f4583e" d="m15 61.40340909090909 -6.0606060606060606 4.545454545454546h6.0606060606060606v-4.545454545454546Z" stroke-width="1"></path><path stroke="#f4583e" stroke-width="1" d="m13.484848484848484 65.94886363636364 0 -2.196818181818182 3.8257575757575757 -37.38575757575758"></path><path fill="#f4583e" d="m25.03787878787879 61.40340909090909 6.0606060606060606 4.545454545454546h-6.0606060606060606v-4.545454545454546Z" stroke-width="1"></path><path stroke="#f4583e" stroke-width="1" d="m26.553030303030305 65.94886363636364 0 -2.196818181818182L22.727272727272727 26.366287878787883"></path><path stroke="#f4583e" stroke-width="1" d="M27.062272727272727 23.787954545454543s11.895984848484847 7.265833333333334 7.974545454545455 21.901136363636365"></path><path stroke="#f4583e" stroke-width="1" d="M12.915606060606061 23.787954545454543S1.019659090909091 31.053787878787883 4.941090909090908 45.68909090909091"></path></g><defs><clipPath id="a"><path fill="#ffffff" d="M0 0h39.97787878787879v65.94886363636364H0z" stroke-width="1"></path></clipPath></defs></svg>