<svg xmlns="http://www.w3.org/2000/svg" fill="none" viewBox="-1 -1 40 40" id="Bell-Notification--Streamline-Plump.svg" height="40" width="40"><desc>Bell Notification Streamline Icon: https://streamlinehq.com</desc><g id="bell-notification--alert-bell-ring-notification-alarm"><path id="Union" stroke="#000000" stroke-linecap="round" stroke-linejoin="round" d="M31.030166666666666 13.417958333333337C30.494208333333336 7.171708333333333 25.268416666666667 2.375 19 2.375S7.505000000000001 7.172500000000001 6.969833333333334 13.417958333333337l-0.37920833333333337 4.425416666666667A12.666666666666668 12.666666666666668 0 0 1 4.75 23.412750000000003l-1.1653333333333333 1.8873333333333335c-1.1692916666666668 1.8944583333333334 -0.5312083333333334 3.85225 1.6759583333333334 4.145958333333334C7.784458333333334 29.782500000000002 11.999291666666668 30.083333333333336 19 30.083333333333336s11.214750000000002 -0.30083333333333334 13.739375 -0.6365000000000001c2.2071666666666667 -0.29370833333333335 2.84525 -2.2515 1.6759583333333334 -4.145958333333334L33.25 23.413541666666667a12.667458333333336 12.667458333333336 0 0 1 -1.8406250000000004 -5.5709583333333335l-0.38 -4.425416666666667Z" stroke-width="2"></path><path id="Subtract" stroke="#000000" stroke-linecap="round" stroke-linejoin="round" d="M12.704666666666666 29.986750000000004a6.334125 6.334125 0 0 0 12.590666666666667 0" stroke-width="2"></path><path id="Union_2" stroke="#000000" stroke-linecap="round" stroke-linejoin="round" d="M19 7.125000000000001c3.7129166666666675 0 6.808333333333334 3.095416666666667 7.125000000000001 7.125000000000001" stroke-width="2"></path></g></svg>