<svg xmlns="http://www.w3.org/2000/svg" fill="none" viewBox="0 0 60 60" id="Abstract-Avatar-47-Circle--Streamline-Abstract.svg" height="60" width="60"><desc>Abstract Avatar 47 Circle Streamline Emoji: https://streamlinehq.com</desc><g clip-path="url(#a)"><path fill="#fafafa" d="M0.08116959064327485 0.032865497076023396h59.88304093567251v59.88304093567251h-59.88304093567251z" stroke-width="1"></path><path fill="#f4583e" d="M51.06070175438597 28.348070175438597v49.69309941520467L8.955415204678362 60.921052631578945l0 -49.69298245614035L51.06070175438597 28.348070175438597Z" stroke-width="1"></path><path fill="#000000" d="M34.21859649122807 33.21637426900585a1.4035087719298245 1.4035087719298245 0 1 0 2.807017543859649 0 1.4035087719298245 1.4035087719298245 0 1 0 -2.807017543859649 0" stroke-width="1"></path><path fill="#000000" d="M22.99052631578947 33.21637426900585a1.4035087719298245 1.4035087719298245 0 1 0 2.807017543859649 0 1.4035087719298245 1.4035087719298245 0 1 0 -2.807017543859649 0" stroke-width="1"></path><path stroke="#000000" stroke-linecap="round" stroke-width="1" d="M26.499298245614032 40.23391812865497c1.9380116959064326 1.871111111111111 5.079766081871345 1.871345029239766 7.017543859649122 0.0004678362573099415"></path></g><defs><clipPath id="a"><path fill="#ffffff" d="M30.008070175438597 0s29.941520467836256 0 29.941520467836256 29.941520467836256 0 29.941520467836256 -29.941520467836256 29.941520467836256 -29.941520467836256 0 -29.941520467836256 -29.941520467836256 0 -29.941520467836256 29.941520467836256 -29.941520467836256" stroke-width="1"></path></clipPath></defs></svg>