<svg xmlns="http://www.w3.org/2000/svg" fill="none" viewBox="0 0 24 24" id="Abstract-Avatar-39-Circle--Streamline-Abstract.svg" height="24" width="24"><desc>Abstract Avatar 39 Circle Streamline Emoji: https://streamlinehq.com</desc><g clip-path="url(#a)"><path fill="#fafafa" d="M0.03246783625730994 0.013146198830409357h23.953216374269005v23.953216374269005h-23.953216374269005z" stroke-width="1"></path><path fill="#ffce51" d="m15.023157894736842 1.4970760233918128 1.0091228070175438 6.846409356725147 2.9823625730994148 -6.244795321637426 -1.0537543859649123 6.839695906432748L22.65136842105263 3.850077192982456 19.628491228070175 10.075321637426901l5.981894736842105 -3.479719298245614 -4.723508771929825 5.057637426900585 6.741801169590643 -1.5618713450292396 -6.004444444444444 3.4406549707602334 6.90259649122807 0.4945964912280701 -6.751812865497075 1.5179883040935673 6.450152046783626 2.5072748538011695 -6.8992748538011694 -0.5395555555555555 5.424561403508772 4.297076023391813 -6.433637426900584 -2.5492397660818713 3.9169122807017542 5.705122807017544 -5.396444444444445 -4.332397660818714 2.0613333333333332 6.606269005847953 -3.879719298245614 -5.730573099415205 0.02254970760233918 6.920327485380116 -2.0182923976608187 -6.619508771929824 -2.0182923976608187 6.619508771929824 0.022596491228070174 -6.920327485380116 -3.8797660818713453 5.730573099415205 2.061380116959064 -6.606269005847953 -5.3964912280701745 4.332397660818714 3.917005847953216 -5.705122807017544 -6.433745029239765 2.5492397660818713 5.424575438596491 -4.297076023391813 -6.899288888888888 0.5395555555555555L8.271345029239766 15.544608187134504 1.519485380116959 14.026619883040937l6.902690058479531 -0.4945964912280701 -6.004481871345029 -3.4406549707602334 6.7418385964912275 1.5618713450292396L4.435967251461988 6.595602339181286 10.417824561403508 10.075321637426901 7.394947368421053 3.850077192982456l4.690526315789474 5.088308771929825 -1.0537543859649123 -6.839695906432748 2.9823625730994148 6.244795321637426L15.023157894736842 1.4970760233918128Z" stroke-width="1"></path><path stroke="#000000" stroke-linecap="round" stroke-width="1" d="M16.70736842105263 16.226245614035086c0 0.46507602339181286 -0.37707602339181284 0.8421052631578947 -0.8421988304093566 0.8421052631578947 -0.45843274853801164 0 -0.831345029239766 -0.3662222222222222 -0.8420116959064328 -0.8220350877192982"></path><path stroke="#000000" stroke-linecap="round" stroke-width="1" d="M15.023157894736842 16.226245614035086c0 0.46507602339181286 -0.37707602339181284 0.8421052631578947 -0.8421988304093566 0.8421052631578947 -0.45843274853801164 0 -0.831345029239766 -0.3662222222222222 -0.8420116959064328 -0.8220350877192982"></path><path fill="#000000" d="M16.70736842105263 13.41922807017544a0.5614035087719298 0.5614035087719298 0 1 0 1.1228070175438596 0 0.5614035087719298 0.5614035087719298 0 1 0 -1.1228070175438596 0" stroke-width="1"></path><path fill="#000000" d="M12.216140350877193 13.41922807017544a0.5614035087719298 0.5614035087719298 0 1 0 1.1228070175438596 0 0.5614035087719298 0.5614035087719298 0 1 0 -1.1228070175438596 0" stroke-width="1"></path></g><defs><clipPath id="a"><path fill="#ffffff" d="M12.003228070175439 0s11.976608187134502 0 11.976608187134502 11.976608187134502 0 11.976608187134502 -11.976608187134502 11.976608187134502 -11.976608187134502 0 -11.976608187134502 -11.976608187134502 0 -11.976608187134502 11.976608187134502 -11.976608187134502" stroke-width="1"></path></clipPath></defs></svg>