<svg xmlns="http://www.w3.org/2000/svg" fill="none" viewBox="0 0 24 24" id="Abstract-Avatar-25-Circle--Streamline-Abstract.svg" height="24" width="24"><desc>Abstract Avatar 25 Circle Streamline Emoji: https://streamlinehq.com</desc><g clip-path="url(#a)"><path fill="#fafafa" d="M0.03246783625730994 0.013146198830409357h23.953216374269005v23.953216374269005h-23.953216374269005z" stroke-width="1"></path><path fill="#ffa8af" d="m21.958783625730995 16.46783625730994 -9.955555555555556 -13.099415204678362 -9.955555555555556 13.099415204678362 9.955555555555556 13.099415204678362 9.955555555555556 -13.099415204678362Z" stroke-width="1"></path><path stroke="#000000" stroke-linecap="round" stroke-linejoin="round" stroke-width="1" d="M10.62311111111111 17.77777777777778c0.7752046783625731 0.7484444444444444 2.031906432748538 0.7485380116959064 2.807017543859649 0.0001871345029239766l-2.807017543859649 -0.0001871345029239766Z"></path><path fill="#000000" d="M10.371228070175437 15.381614035087718c0.2038830409356725 -0.14989473684210528 0.4981052631578947 -0.38451461988304086 0.6207251461988305 -0.5721637426900584 0.09174269005847953 -0.14021052631578945 0.1215906432748538 -0.31387134502923975 0.08168421052631579 -0.47536842105263155 -0.08523976608187134 -0.367859649122807 -0.5573801169590643 -0.5181754385964912 -0.8514619883040935 -0.27167251461988307 -0.016514619883040933 0.01375438596491228 -0.03176608187134503 0.029052631578947368 -0.047438596491228065 0.044725146198830404 -0.006362573099415205 0.006409356725146199 -0.012818713450292398 0.012865497076023392 -0.019461988304093566 0.019321637426900583 -0.006643274853801169 -0.006456140350877194 -0.013099415204678362 -0.012912280701754387 -0.01950877192982456 -0.019321637426900583 -0.015625730994152046 -0.015672514619883043 -0.03087719298245614 -0.030970760233918128 -0.047438596491228065 -0.044725146198830404 -0.29403508771929826 -0.24650292397660817 -0.7661754385964912 -0.09618713450292397 -0.8514152046783626 0.27167251461988307 -0.03990643274853801 0.1614970760233918 -0.010058479532163742 0.3351578947368421 0.08168421052631579 0.47536842105263155 0.12261988304093567 0.18764912280701754 0.4168421052631579 0.4222690058479532 0.6207251461988305 0.5721637426900584 0.024701754385964912 0.018152046783625732 0.06867836257309941 0.04893567251461988 0.11059649122807017 0.07798830409356725 0.06339181286549707 0.043929824561403506 0.14732163742690058 0.043929824561403506 0.21071345029239763 0 0.04187134502923977 -0.029052631578947368 0.08589473684210526 -0.059836257309941514 0.11059649122807017 -0.07798830409356725Z" stroke-width="1"></path><path fill="#000000" d="M14.11391812865497 15.381614035087718c0.2038830409356725 -0.14989473684210528 0.4981052631578947 -0.38451461988304086 0.6207251461988305 -0.5721637426900584 0.09174269005847953 -0.14021052631578945 0.1215906432748538 -0.31387134502923975 0.08168421052631579 -0.47536842105263155 -0.08523976608187134 -0.367859649122807 -0.5573801169590643 -0.5181754385964912 -0.8514619883040935 -0.27167251461988307 -0.016514619883040933 0.01375438596491228 -0.03176608187134503 0.029052631578947368 -0.047438596491228065 0.044725146198830404 -0.006362573099415205 0.006409356725146199 -0.012818713450292398 0.012865497076023392 -0.019461988304093566 0.019321637426900583 -0.006643274853801169 -0.006456140350877194 -0.013099415204678362 -0.012912280701754387 -0.01950877192982456 -0.019321637426900583 -0.015625730994152046 -0.015672514619883043 -0.03087719298245614 -0.030970760233918128 -0.047438596491228065 -0.044725146198830404 -0.29403508771929826 -0.24650292397660817 -0.7661754385964912 -0.09618713450292397 -0.8514152046783626 0.27167251461988307 -0.03990643274853801 0.1614970760233918 -0.010058479532163742 0.3351578947368421 0.08168421052631579 0.47536842105263155 0.12261988304093567 0.18764912280701754 0.4168421052631579 0.4222690058479532 0.6207251461988305 0.5721637426900584 0.024701754385964912 0.018152046783625732 0.06867836257309941 0.04893567251461988 0.11059649122807017 0.07798830409356725 0.06339181286549707 0.043929824561403506 0.14732163742690058 0.043929824561403506 0.21071345029239763 0 0.04187134502923977 -0.029052631578947368 0.08589473684210526 -0.059836257309941514 0.11059649122807017 -0.07798830409356725Z" stroke-width="1"></path></g><defs><clipPath id="a"><path fill="#ffffff" d="M12.003228070175439 0s11.976608187134502 0 11.976608187134502 11.976608187134502 0 11.976608187134502 -11.976608187134502 11.976608187134502 -11.976608187134502 0 -11.976608187134502 -11.976608187134502 0 -11.976608187134502 11.976608187134502 -11.976608187134502" stroke-width="1"></path></clipPath></defs></svg>