<svg xmlns="http://www.w3.org/2000/svg" fill="none" viewBox="0 0 100 100" id="Abstract-Avatar-14-Circle--Streamline-Abstract.svg" height="100" width="100"><desc>Abstract Avatar 14 Circle Streamline Emoji: https://streamlinehq.com</desc><g clip-path="url(#a)"><path fill="#fafafa" d="M0.13528265107212473 0.05477582846003899h99.80506822612085v99.80506822612085h-99.80506822612085z" stroke-width="1"></path><path fill="#80d9ff" fill-rule="evenodd" d="M67.58986354775828 81.02592592592592c0 2.1189083820662766 -1.7366471734892788 3.8267056530214423 -3.8553606237816758 3.7914230019493176l-8.571539961013645 -0.14288499025341128c-24.255750487329433 -0.4042884990253411 -44.135906432748534 19.14717348927875 -44.135906432748534 43.40623781676413l0 6.085575048732943c0 8.612670565302144 6.981910331384015 15.594541910331383 15.59458089668616 15.594541910331383 8.612670565302144 0 15.594541910331383 -6.98187134502924 15.594541910331383 -15.594541910331383l0 -6.085575048732943c0 -6.830409356725146 5.597465886939571 -12.335282651072124 12.426900584795321 -12.221442495126704l8.571734892787523 0.14288499025341128c19.5448343079922 0.32573099415204676 35.564132553606235 -15.428654970760233 35.564132553606235 -34.97621832358674 0 -19.54736842105263 -16.0187134502924 -35.301559454191036 -35.563352826510716 -34.97621832358674l-8.572124756335283 0.14269005847953214c-6.829824561403508 0.11364522417153995 -12.42729044834308 -5.391617933723197 -12.42729044834308 -12.222222222222221l0 -1.2216374269005847c0 -8.612475633528264 -6.98187134502924 -15.594463937621832 -15.594541910331383 -15.594463937621832 -8.612651072124756 0 -15.59458089668616 6.981988304093567 -15.59458089668616 15.594463937621832l0 1.2216374269005847c0 24.25906432748538 19.87976608187134 43.81072124756335 44.135516569200774 43.407017543859645l8.572124756335283 -0.14269005847953214c2.1187134502923977 -0.035282651072124756 3.8551656920077972 1.672514619883041 3.8551656920077972 3.7914230019493176Z" clip-rule="evenodd" stroke-width="1"></path><path fill="#000000" d="M23.502729044834307 30.409356725146196a2.3391812865497075 2.3391812865497075 0 1 1 -4.678362573099415 0 2.3391812865497075 2.3391812865497075 0 1 1 4.678362573099415 0" stroke-width="1"></path><path fill="#000000" d="M42.216179337231964 30.409356725146196a2.3391812865497075 2.3391812865497075 0 1 1 -4.678362573099415 0 2.3391812865497075 2.3391812865497075 0 1 1 4.678362573099415 0" stroke-width="1"></path><path stroke="#000000" stroke-linecap="round" stroke-width="1" d="M36.3682261208577 38.20662768031189c-3.230019493177388 3.1185185185185182 -8.466471734892787 3.1189083820662766 -11.695906432748536 0.0007797270955165692"></path></g><defs><clipPath id="a"><path fill="#ffffff" d="M50.013450292397664 0s49.902534113060426 0 49.902534113060426 49.902534113060426 0 49.902534113060426 -49.902534113060426 49.902534113060426 -49.902534113060426 0 -49.902534113060426 -49.902534113060426 0 -49.902534113060426 49.902534113060426 -49.902534113060426" stroke-width="1"></path></clipPath></defs></svg>